<svg width="32" height="32" viewBox="0 0 32 32" fill="none" xmlns="http://www.w3.org/2000/svg">
<rect width="32" height="32" rx="8" fill="#36B92E"/>
<g transform="translate(8, 7)">
<path d="M15.4771 14.6516C14.9107 14.0878 14.1864 13.7093 13.4001 13.5664C12.6138 13.4234 11.8027 13.5227 11.0741 13.851C10.1032 14.2824 9.02857 14.4251 7.97872 14.262V5.50148C7.29153 5.50148 6.63248 5.77447 6.14656 6.26039C5.66064 6.7463 5.38766 7.40535 5.38766 8.09254V13.1146C4.49769 12.4024 3.85085 11.4315 3.5365 10.3359C3.22215 9.24025 3.2558 8.07405 3.63281 6.99839C4.00982 5.92273 4.71158 4.9907 5.64112 4.33107C6.57067 3.67143 7.68213 3.31675 8.82195 3.31603C9.59341 3.31432 10.3565 3.47621 11.0608 3.79101C11.7894 4.11936 12.6005 4.21864 13.3868 4.07568C14.173 3.93272 14.8973 3.55428 15.4637 2.99047L15.0608 2.58754C13.5282 1.05088 11.4822 0.134285 9.31531 0.0136287C7.14841 -0.107028 5.01328 0.576756 3.31961 1.93377C2.28494 2.7579 1.44923 3.80453 0.874548 4.99594C0.299862 6.18735 0.000968783 7.49292 6.56833e-05 8.81569C-0.00442699 9.9761 0.221594 11.1258 0.665011 12.1982C1.10843 13.2706 1.76041 14.2442 2.58312 15.0625C2.81522 15.2931 3.05927 15.5113 3.31428 15.7163C5.00984 17.0688 7.144 17.7497 9.30957 17.6291C11.4751 17.5086 13.5205 16.5949 15.0554 15.0625L15.4771 14.6516Z" fill="white"/>
<path d="M8.75928 10.2246H9.9494C10.2895 10.225 10.6264 10.1583 10.9408 10.0284C11.2551 9.89844 11.5408 9.70783 11.7814 9.46744C12.022 9.22706 12.2129 8.94159 12.3432 8.62738C12.4734 8.31317 12.5405 7.97637 12.5405 7.63623H11.3503C11.0102 7.63588 10.6733 7.70257 10.359 7.83249C10.0446 7.96242 9.75898 8.15302 9.51834 8.39341C9.2777 8.6338 9.08681 8.91926 8.95656 9.23347C8.82631 9.54768 8.75928 9.88448 8.75928 10.2246Z" fill="white"/>
</g>
</svg>
